<svg width="184" height="161" viewBox="0 0 184 161" fill="none" xmlns="http://www.w3.org/2000/svg">
<path d="M183.547 78.6274C183.547 79.9233 182.913 81.1937 181.696 82.4265C180.479 83.6594 178.681 84.8511 176.361 85.9879C171.721 88.2613 165.004 90.31 156.7 92.0311C140.092 95.473 117.145 97.6023 91.7984 97.6023C66.4513 97.6023 43.5053 95.473 26.8973 92.0311C18.5929 90.31 11.8758 88.2613 7.23597 85.9879C4.91598 84.8511 3.11796 83.6594 1.9006 82.4265C0.683385 81.1937 0.05 79.9233 0.05 78.6274C0.05 77.3316 0.683385 76.0612 1.9006 74.8284C3.11796 73.5954 4.91598 72.4037 7.23597 71.267C11.8758 68.9936 18.5929 66.9448 26.8973 65.2238C43.5053 61.7818 66.4513 59.6525 91.7984 59.6525C117.145 59.6525 140.092 61.7818 156.7 65.2238C165.004 66.9448 171.721 68.9936 176.361 71.267C178.681 72.4037 180.479 73.5954 181.696 74.8284C182.913 76.0612 183.547 77.3316 183.547 78.6274Z" stroke="#426FE2" stroke-width="0.1"/>
<path d="M159.449 78.7601C159.449 79.6449 159.016 80.5298 158.145 81.4078C157.274 82.2864 155.978 83.1435 154.292 83.9661C150.921 85.6108 146.03 87.0974 139.969 88.348C127.852 90.8484 111.103 92.3964 92.5964 92.3964C74.0897 92.3964 57.3407 90.8484 45.2234 88.348C39.1631 87.0974 34.272 85.6108 30.9007 83.9661C29.2147 83.1435 27.9193 82.2864 27.048 81.4078C26.1773 80.5298 25.7437 79.6449 25.7437 78.7601C25.7437 77.8753 26.1773 76.9905 27.048 76.1124C27.9193 75.2338 29.2147 74.3767 30.9007 73.5542C34.272 71.9094 39.1631 70.4228 45.2234 69.1723C57.3407 66.6719 74.0897 65.1238 92.5964 65.1238C111.103 65.1238 127.852 66.6719 139.969 69.1723C146.03 70.4228 150.921 71.9094 154.292 73.5542C155.978 74.3767 157.274 75.2338 158.145 76.1124C159.016 76.9905 159.449 77.8753 159.449 78.7601Z" stroke="#426FE2" stroke-width="0.4"/>
<path d="M147.06 78.6271C147.06 79.304 146.732 80.0009 146.031 80.7144C145.328 81.429 144.274 82.1351 142.885 82.8184C140.109 84.1843 136.07 85.4241 131.05 86.4689C121.017 88.5573 107.139 89.8517 91.7987 89.8517C76.4586 89.8517 62.5808 88.5573 52.547 86.4689C47.5271 85.4241 43.488 84.1843 40.7122 82.8184C39.3237 82.1351 38.2695 81.429 37.5669 80.7144C36.8655 80.0009 36.5375 79.304 36.5375 78.6271C36.5375 77.9502 36.8655 77.2532 37.5669 76.5398C38.2695 75.8252 39.3237 75.119 40.7122 74.4358C43.488 73.0699 47.5271 71.8301 52.547 70.7853C62.5808 68.6969 76.4586 67.4025 91.7987 67.4025C107.139 67.4025 121.017 68.6969 131.05 70.7853C136.07 71.8301 140.109 73.0699 142.885 74.4358C144.274 75.119 145.328 75.8252 146.031 76.5398C146.732 77.2532 147.06 77.9502 147.06 78.6271Z" stroke="#426FE2" stroke-width="0.7"/>
<path d="M169.128 78.7601C169.128 79.827 168.604 80.8792 167.584 81.9072C166.564 82.9354 165.053 83.932 163.099 84.8845C159.192 86.7892 153.532 88.5072 146.529 89.9511C132.526 92.8384 113.175 94.625 91.7981 94.625C70.4211 94.625 51.0707 92.8384 37.0671 89.9511C30.0644 88.5072 24.4041 86.7892 20.4968 84.8845C18.543 83.932 17.0327 82.9354 16.0122 81.9072C14.9921 80.8792 14.4682 79.827 14.4682 78.7601C14.4682 77.6932 14.9921 76.641 16.0122 75.6131C17.0327 74.5848 18.543 73.5882 20.4968 72.6357C24.4041 70.731 30.0644 69.013 37.0671 67.5691C51.0707 64.6818 70.4211 62.8952 91.7981 62.8952C113.175 62.8952 132.526 64.6818 146.529 67.5691C153.532 69.013 159.192 70.731 163.099 72.6357C165.053 73.5882 166.564 74.5848 167.584 75.6131C168.604 76.641 169.128 77.6932 169.128 78.7601Z" stroke="#426FE2" stroke-width="0.2"/>
<path d="M133.871 78.7605C133.871 79.1905 133.662 79.663 133.151 80.1779C132.639 80.6943 131.857 81.2164 130.806 81.7289C128.706 82.7528 125.636 83.6887 121.801 84.4797C114.139 86.06 103.531 87.0412 91.7978 87.0412C80.0649 87.0412 69.4571 86.06 61.795 84.4797C57.9599 83.6887 54.8892 82.7528 52.7894 81.7289C51.7384 81.2164 50.9568 80.6943 50.4445 80.1779C49.9336 79.663 49.7246 79.1905 49.7246 78.7605C49.7246 78.3304 49.9336 77.8579 50.4445 77.343C50.9568 76.8266 51.7384 76.3045 52.7894 75.792C54.8892 74.7681 57.9599 73.8322 61.795 73.0412C69.4571 71.4609 80.0649 70.4797 91.7978 70.4797C103.531 70.4797 114.139 71.4609 121.801 73.0412C125.636 73.8322 128.706 74.7681 130.806 75.792C131.857 76.3045 132.639 76.8266 133.151 77.343C133.662 77.8579 133.871 78.3304 133.871 78.7605Z" stroke="#426FE2"/>
<path d="M113.947 79.5585C113.947 79.5587 113.948 79.561 113.946 79.567C113.945 79.5734 113.941 79.5867 113.93 79.6076C113.909 79.6509 113.862 79.7233 113.766 79.8206C113.567 80.0217 113.222 80.2637 112.689 80.5245C111.627 81.0441 110.025 81.5396 107.965 81.9659C103.86 82.8152 98.1439 83.348 91.7983 83.348C85.4528 83.348 79.7366 82.8152 75.632 81.9659C73.5715 81.5396 71.9699 81.0441 70.9078 80.5245C70.3746 80.2637 70.0294 80.0217 69.8305 79.8206C69.7342 79.7233 69.6876 79.6509 69.6664 79.6076C69.6561 79.5867 69.6521 79.5734 69.6506 79.567C69.6491 79.5612 69.6492 79.5589 69.6492 79.5586L69.6492 79.5585L69.6492 79.5585C69.6492 79.5582 69.6491 79.5558 69.6506 79.55C69.6521 79.5437 69.6561 79.5303 69.6664 79.5095C69.6876 79.4661 69.7342 79.3938 69.8305 79.2965C70.0294 79.0954 70.3746 78.8533 70.9078 78.5925C71.9699 78.073 73.5715 77.5774 75.632 77.1511C79.7366 76.3019 85.4528 75.769 91.7983 75.769C98.1439 75.769 103.86 76.3019 107.965 77.1511C110.025 77.5774 111.627 78.073 112.689 78.5925C113.222 78.8533 113.567 79.0954 113.766 79.2965C113.862 79.3938 113.909 79.4661 113.93 79.5095C113.941 79.5303 113.945 79.5437 113.946 79.55C113.948 79.556 113.947 79.5583 113.947 79.5585Z" stroke="#426FE2" stroke-width="2"/>
<path d="M91.6649 0C75.9982 0 63.3271 12.7008 63.3271 28.4043C63.3271 49.7075 91.6649 81.1551 91.6649 81.1551C91.6649 81.1551 120.003 49.7075 120.003 28.4043C120.003 12.7008 107.332 0 91.6649 0ZM91.6649 38.5487C86.0783 38.5487 81.5443 34.004 81.5443 28.4043C81.5443 22.8046 86.0783 18.2599 91.6649 18.2599C97.2515 18.2599 101.786 22.8046 101.786 28.4043C101.786 34.004 97.2515 38.5487 91.6649 38.5487Z" fill="#426FE2"/>
<path d="M30.339 143.352C23.619 143.352 18.369 141.719 14.589 138.452C10.809 135.139 8.80232 130.449 8.56898 124.382C8.52232 123.029 8.49898 120.882 8.49898 117.942C8.49898 115.002 8.52232 112.856 8.56898 111.502C8.80232 105.576 10.8323 101.002 14.659 97.7823C18.5323 94.5623 23.759 92.9523 30.339 92.9523C34.7723 92.9523 38.6223 93.6757 41.889 95.1223C45.2023 96.569 47.7223 98.4123 49.449 100.652C51.2223 102.892 52.1557 105.202 52.249 107.582C52.249 108.002 52.0857 108.352 51.759 108.632C51.479 108.912 51.129 109.052 50.709 109.052H40.489C40.0223 109.052 39.649 108.982 39.369 108.842C39.089 108.702 38.8557 108.446 38.669 108.072C38.0623 106.719 37.1057 105.552 35.799 104.572C34.4923 103.546 32.6723 103.032 30.339 103.032C24.7857 103.032 21.869 105.972 21.589 111.852C21.5423 113.159 21.519 115.189 21.519 117.942C21.519 120.649 21.5423 122.679 21.589 124.032C21.869 130.192 24.8557 133.272 30.549 133.272C33.3023 133.272 35.4957 132.572 37.129 131.172C38.809 129.726 39.649 127.532 39.649 124.592V123.262H33.069C32.5557 123.262 32.1357 123.099 31.809 122.772C31.4823 122.399 31.319 121.956 31.319 121.442V116.262C31.319 115.749 31.4823 115.329 31.809 115.002C32.1357 114.629 32.5557 114.442 33.069 114.442H50.709C51.2223 114.442 51.6423 114.629 51.969 115.002C52.2957 115.329 52.459 115.749 52.459 116.262V124.242C52.459 128.209 51.549 131.639 49.729 134.532C47.909 137.379 45.319 139.572 41.959 141.112C38.6457 142.606 34.7723 143.352 30.339 143.352ZM70.6398 143.352C68.1665 143.352 65.9032 142.886 63.8498 141.952C61.8432 140.972 60.2565 139.666 59.0898 138.032C57.9698 136.352 57.4098 134.509 57.4098 132.502C57.4098 129.282 58.7165 126.692 61.3298 124.732C63.9898 122.772 67.6298 121.419 72.2498 120.672L80.9998 119.342V118.362C80.9998 116.589 80.6265 115.282 79.8798 114.442C79.1332 113.602 77.8732 113.182 76.0998 113.182C75.0265 113.182 74.1398 113.369 73.4398 113.742C72.7398 114.116 72.0165 114.629 71.2698 115.282C70.6165 115.842 70.1265 116.216 69.7998 116.402C69.6598 116.776 69.4032 116.962 69.0298 116.962H61.3998C60.9332 116.962 60.5365 116.822 60.2098 116.542C59.9298 116.216 59.8132 115.842 59.8598 115.422C59.9065 114.162 60.5132 112.762 61.6798 111.222C62.8932 109.682 64.7132 108.352 67.1398 107.232C69.6132 106.112 72.6465 105.552 76.2398 105.552C81.9798 105.552 86.2265 106.836 88.9798 109.402C91.7332 111.922 93.1098 115.329 93.1098 119.622V140.902C93.1098 141.369 92.9465 141.789 92.6198 142.162C92.2932 142.489 91.8732 142.652 91.3598 142.652H83.2398C82.7732 142.652 82.3532 142.489 81.9798 142.162C81.6532 141.789 81.4898 141.369 81.4898 140.902V138.452C80.4632 139.899 79.0165 141.089 77.1498 142.022C75.3298 142.909 73.1598 143.352 70.6398 143.352ZM73.9298 135.372C76.0765 135.372 77.8032 134.672 79.1098 133.272C80.4632 131.872 81.1398 129.819 81.1398 127.112V126.132L75.1898 127.182C70.9898 127.929 68.8898 129.399 68.8898 131.592C68.8898 132.759 69.3798 133.692 70.3598 134.392C71.3398 135.046 72.5298 135.372 73.9298 135.372ZM101.289 142.652C100.822 142.652 100.402 142.489 100.029 142.162C99.7022 141.789 99.5389 141.369 99.5389 140.902V135.442C99.5389 134.602 99.9122 133.809 100.659 133.062L117.039 115.282H101.919C101.406 115.282 100.962 115.119 100.589 114.792C100.262 114.466 100.099 114.046 100.099 113.532V108.002C100.099 107.489 100.262 107.069 100.589 106.742C100.962 106.416 101.406 106.252 101.919 106.252H130.059C130.572 106.252 130.992 106.416 131.319 106.742C131.646 107.069 131.809 107.489 131.809 108.002V113.952C131.809 114.606 131.482 115.306 130.829 116.052L114.869 133.622H131.459C131.972 133.622 132.392 133.786 132.719 134.112C133.092 134.439 133.279 134.859 133.279 135.372V140.902C133.279 141.416 133.092 141.836 132.719 142.162C132.392 142.489 131.972 142.652 131.459 142.652H101.289ZM156.159 143.352C150.559 143.352 146.149 141.836 142.929 138.802C139.709 135.769 138.029 131.359 137.889 125.572V123.122C138.075 117.616 139.779 113.322 142.999 110.242C146.265 107.116 150.629 105.552 156.089 105.552C160.055 105.552 163.392 106.369 166.099 108.002C168.852 109.589 170.905 111.782 172.259 114.582C173.659 117.382 174.359 120.602 174.359 124.242V125.922C174.359 126.389 174.195 126.809 173.869 127.182C173.542 127.509 173.122 127.672 172.609 127.672H150.209V128.162C150.302 130.356 150.839 132.129 151.819 133.482C152.799 134.836 154.222 135.512 156.089 135.512C157.255 135.512 158.212 135.279 158.959 134.812C159.705 134.299 160.382 133.692 160.989 132.992C161.409 132.479 161.735 132.176 161.969 132.082C162.249 131.942 162.669 131.872 163.229 131.872H171.909C172.329 131.872 172.679 132.012 172.959 132.292C173.285 132.526 173.449 132.852 173.449 133.272C173.449 134.486 172.749 135.886 171.349 137.472C169.995 139.059 168.012 140.436 165.399 141.602C162.785 142.769 159.705 143.352 156.159 143.352ZM162.039 120.742V120.602C162.039 118.316 161.502 116.519 160.429 115.212C159.402 113.859 157.955 113.182 156.089 113.182C154.269 113.182 152.822 113.859 151.749 115.212C150.722 116.519 150.209 118.316 150.209 120.602V120.742H162.039Z" fill="#426FE2"/>
</svg>
