<svg width="50" height="30" viewBox="0 0 64 34" fill="none" xmlns="http://www.w3.org/2000/svg">
<path d="M63.8736 27.3759C63.8736 27.8157 63.6588 28.2502 63.2386 28.6757C62.8183 29.1014 62.1959 29.5144 61.3899 29.9094C59.778 30.6992 57.4423 31.4118 54.552 32.0108C48.7723 33.2086 40.7854 33.9499 31.9618 33.9499C23.1381 33.9499 15.1512 33.2086 9.37154 32.0108C6.48127 31.4118 4.1456 30.6992 2.53372 29.9094C1.72767 29.5144 1.10522 29.1014 0.684929 28.6757C0.264795 28.2502 0.05 27.8157 0.05 27.3759C0.05 26.9362 0.264795 26.5016 0.684929 26.0761C1.10522 25.6504 1.72767 25.2374 2.53372 24.8425C4.1456 24.0527 6.48127 23.34 9.37154 22.741C15.1512 21.5432 23.1381 20.802 31.9618 20.802C40.7854 20.802 48.7723 21.5432 54.552 22.741C57.4423 23.34 59.778 24.0527 61.3899 24.8425C62.1959 25.2374 62.8183 25.6504 63.2386 26.0761C63.6588 26.5016 63.8736 26.9362 63.8736 27.3759Z" stroke="#426FE2" stroke-width="0.1"/>
<path d="M55.3856 27.4222C55.3856 27.6843 55.2577 27.9613 54.9692 28.2522C54.6802 28.5437 54.2434 28.8345 53.6632 29.1176C52.5037 29.6833 50.8129 30.1982 48.7072 30.6327C44.4993 31.501 38.677 32.0396 32.2396 32.0396C25.8021 32.0396 19.9798 31.501 15.7719 30.6327C13.6663 30.1982 11.9754 29.6833 10.8159 29.1176C10.2357 28.8345 9.79895 28.5437 9.50987 28.2522C9.22139 27.9613 9.09355 27.6843 9.09355 27.4222C9.09355 27.16 9.22139 26.883 9.50987 26.5921C9.79895 26.3006 10.2357 26.0098 10.8159 25.7268C11.9754 25.161 13.6663 24.6461 15.7719 24.2116C19.9798 23.3433 25.8021 22.8047 32.2396 22.8047C38.677 22.8047 44.4993 23.3433 48.7072 24.2116C50.8129 24.6461 52.5037 25.161 53.6632 25.7268C54.2434 26.0098 54.6802 26.3006 54.9692 26.5921C55.2577 26.883 55.3856 27.16 55.3856 27.4222Z" stroke="#426FE2" stroke-width="0.4"/>
<path d="M50.9743 27.3759C50.9743 27.532 50.8999 27.7204 50.6814 27.9427C50.4617 28.1662 50.1196 28.3985 49.6482 28.6305C48.7068 29.0938 47.3218 29.5207 45.5819 29.8829C42.1078 30.606 37.2922 31.0559 31.962 31.0559C26.6317 31.0559 21.8162 30.606 18.342 29.8829C16.6021 29.5207 15.2172 29.0938 14.2757 28.6305C13.8043 28.3985 13.4622 28.1662 13.2426 27.9427C13.024 27.7204 12.9496 27.532 12.9496 27.3759C12.9496 27.2199 13.024 27.0314 13.2426 26.8091C13.4622 26.5857 13.8043 26.3533 14.2757 26.1213C15.2172 25.658 16.6021 25.2311 18.342 24.869C21.8162 24.1459 26.6317 23.6959 31.962 23.6959C37.2922 23.6959 42.1078 24.1459 45.5819 24.869C47.3218 25.2311 48.7068 25.658 49.6482 26.1213C50.1196 26.3533 50.4617 26.5857 50.6814 26.8091C50.8999 27.0314 50.9743 27.2199 50.9743 27.3759Z" stroke="#426FE2" stroke-width="0.7"/>
<path d="M58.8208 27.4221C58.8208 27.7706 58.65 28.1214 58.3021 28.4719C57.954 28.8227 57.4353 29.1659 56.7584 29.4959C55.4051 30.1556 53.4404 30.7524 51.0045 31.2547C46.1343 32.2588 39.4016 32.8807 31.9618 32.8807C24.5219 32.8807 17.7892 32.2588 12.919 31.2547C10.4831 30.7524 8.51838 30.1556 7.16508 29.4959C6.48822 29.1659 5.96953 28.8227 5.62138 28.4719C5.27351 28.1214 5.10269 27.7706 5.10269 27.4221C5.10269 27.0736 5.27351 26.7228 5.62138 26.3723C5.96953 26.0215 6.48822 25.6783 7.16508 25.3483C8.51838 24.6886 10.4831 24.0918 12.919 23.5895C17.7892 22.5854 24.5219 21.9635 31.9618 21.9635C39.4016 21.9635 46.1343 22.5854 51.0045 23.5895C53.4404 24.0918 55.4051 24.6886 56.7584 25.3483C57.4353 25.6783 57.954 26.0215 58.3021 26.3723C58.65 26.7228 58.8208 27.0736 58.8208 27.4221Z" stroke="#426FE2" stroke-width="0.2"/>
<path d="M46.2844 27.4222C46.2844 27.4571 46.2695 27.5439 46.1283 27.6862C45.9856 27.83 45.7492 27.9927 45.4004 28.1628C44.7048 28.502 43.6661 28.8212 42.3419 29.0943C39.7016 29.6388 36.0314 29.9794 31.9615 29.9794C27.8917 29.9794 24.2214 29.6388 21.5812 29.0943C20.257 28.8212 19.2182 28.502 18.5227 28.1628C18.1738 27.9927 17.9374 27.83 17.7948 27.6862C17.6536 27.5439 17.6387 27.4571 17.6387 27.4222C17.6387 27.3873 17.6536 27.3005 17.7948 27.1582C17.9374 27.0144 18.1738 26.8517 18.5227 26.6816C19.2182 26.3424 20.257 26.0232 21.5812 25.7501C24.2214 25.2056 27.8917 24.865 31.9615 24.865C36.0314 24.865 39.7016 25.2056 42.3419 25.7501C43.6661 26.0232 44.7048 26.3424 45.4004 26.6816C45.7492 26.8517 45.9856 27.0144 46.1283 27.1582C46.2695 27.3005 46.2844 27.3873 46.2844 27.4222Z" stroke="#426FE2"/>
<mask id="path-6-inside-1_96:250" fill="white">
<ellipse cx="31.9618" cy="27.7003" rx="8.05993" ry="1.66757"/>
</mask>
<path d="M38.0217 27.7003C38.0217 27.1131 38.3183 26.7489 38.436 26.63C38.5476 26.5171 38.6083 26.5045 38.5095 26.5528C38.3201 26.6455 37.9169 26.7841 37.2558 26.9209C35.9664 27.1877 34.0936 27.3679 31.9618 27.3679V31.3679C34.2813 31.3679 36.4385 31.1747 38.0662 30.838C38.8636 30.673 39.6408 30.4523 40.2671 30.146C40.5762 29.9948 40.9536 29.7727 41.2799 29.4428C41.6123 29.1067 42.0217 28.5178 42.0217 27.7003H38.0217ZM31.9618 27.3679C29.8299 27.3679 27.9572 27.1877 26.6678 26.9209C26.0066 26.7841 25.6035 26.6455 25.4141 26.5528C25.3152 26.5045 25.376 26.5171 25.4876 26.63C25.6052 26.7489 25.9019 27.1131 25.9019 27.7003H21.9019C21.9019 28.5178 22.3112 29.1067 22.6436 29.4428C22.97 29.7727 23.3474 29.9948 23.6564 30.146C24.2827 30.4523 25.0599 30.673 25.8573 30.838C27.4851 31.1747 29.6423 31.3679 31.9618 31.3679V27.3679ZM25.9019 27.7003C25.9019 28.2875 25.6052 28.6517 25.4876 28.7706C25.376 28.8835 25.3152 28.8961 25.4141 28.8478C25.6035 28.7551 26.0066 28.6164 26.6678 28.4797C27.9572 28.2129 29.8299 28.0327 31.9618 28.0327V24.0327C29.6423 24.0327 27.4851 24.2258 25.8573 24.5626C25.0599 24.7276 24.2827 24.9483 23.6564 25.2546C23.3474 25.4058 22.97 25.6279 22.6436 25.9578C22.3112 26.2939 21.9019 26.8828 21.9019 27.7003H25.9019ZM31.9618 28.0327C34.0936 28.0327 35.9664 28.2129 37.2558 28.4797C37.9169 28.6164 38.3201 28.7551 38.5095 28.8478C38.6083 28.8961 38.5476 28.8835 38.436 28.7706C38.3183 28.6517 38.0217 28.2875 38.0217 27.7003H42.0217C42.0217 26.8828 41.6123 26.2939 41.2799 25.9578C40.9536 25.6279 40.5762 25.4058 40.2671 25.2546C39.6408 24.9483 38.8636 24.7276 38.0662 24.5626C36.4385 24.2258 34.2813 24.0327 31.9618 24.0327V28.0327Z" fill="#426FE2" mask="url(#path-6-inside-1_96:250)"/>
<path d="M31.9153 0C26.4605 0 22.0488 4.42207 22.0488 9.88962C22.0488 17.3068 31.9153 28.2561 31.9153 28.2561C31.9153 28.2561 41.7818 17.3068 41.7818 9.88962C41.7818 4.42207 37.37 0 31.9153 0ZM31.9153 13.4216C29.9702 13.4216 28.3916 11.8393 28.3916 9.88962C28.3916 7.93995 29.9702 6.35762 31.9153 6.35762C33.8604 6.35762 35.439 7.93995 35.439 9.88962C35.439 11.8393 33.8604 13.4216 31.9153 13.4216Z" fill="#426FE2"/>
</svg>
