<svg width="64" height="56" viewBox="0 0 64 56" fill="none" xmlns="http://www.w3.org/2000/svg">
<path d="M7.17023 46.76C7.06357 46.76 6.97023 46.7267 6.89023 46.66C6.81023 46.58 6.77023 46.4867 6.77023 46.38V45.92C6.86357 45.36 7.07023 44.86 7.39023 44.42C7.72357 43.98 8.1769 43.48 8.75023 42.92C9.1769 42.4933 9.4969 42.1467 9.71023 41.88C9.92357 41.6 10.0369 41.32 10.0502 41.04C10.0902 40.6267 9.95023 40.3 9.63023 40.06C9.32357 39.8067 8.95023 39.68 8.51023 39.68C7.47023 39.68 6.83023 40.18 6.59023 41.18C6.48357 41.5 6.2769 41.66 5.97023 41.66H3.53023C3.38357 41.66 3.26357 41.6133 3.17023 41.52C3.09023 41.4133 3.05023 41.28 3.05023 41.12C3.0769 40.3867 3.31023 39.6933 3.75023 39.04C4.19023 38.3733 4.8369 37.8333 5.69023 37.42C6.54357 37.0067 7.56357 36.8 8.75023 36.8C9.96357 36.8 10.9502 36.9933 11.7102 37.38C12.4702 37.7533 13.0102 38.22 13.3302 38.78C13.6636 39.3267 13.8302 39.8867 13.8302 40.46C13.8302 41.1133 13.6769 41.6867 13.3702 42.18C13.0769 42.6733 12.6369 43.24 12.0502 43.88C11.6902 44.2667 11.4036 44.5933 11.1902 44.86C10.9902 45.1267 10.8369 45.4067 10.7302 45.7C10.6902 45.82 10.6436 46 10.5902 46.24C10.4836 46.4267 10.3902 46.56 10.3102 46.64C10.2302 46.72 10.1169 46.76 9.97023 46.76H7.17023ZM7.21023 51C7.06357 51 6.94357 50.9533 6.85023 50.86C6.7569 50.7667 6.71023 50.6467 6.71023 50.5V48.22C6.71023 48.0733 6.7569 47.9533 6.85023 47.86C6.94357 47.7667 7.06357 47.72 7.21023 47.72H9.77023C9.9169 47.72 10.0369 47.7667 10.1302 47.86C10.2369 47.9533 10.2902 48.0733 10.2902 48.22V50.5C10.2902 50.6467 10.2369 50.7667 10.1302 50.86C10.0369 50.9533 9.9169 51 9.77023 51H7.21023ZM23.4438 51C23.2972 51 23.1772 50.9533 23.0838 50.86C22.9905 50.7667 22.9438 50.6467 22.9438 50.5V44.58C22.9438 43.06 22.1838 42.3 20.6638 42.3H16.1238C15.9772 42.3 15.8505 42.2533 15.7438 42.16C15.6505 42.0533 15.6038 41.9267 15.6038 41.78V40.08C15.6038 39.9333 15.6505 39.8133 15.7438 39.72C15.8505 39.6267 15.9772 39.58 16.1238 39.58H20.7638C22.6038 39.58 23.9838 39.9867 24.9038 40.8C25.8372 41.6133 26.3038 42.88 26.3038 44.6V50.5C26.3038 50.6333 26.2572 50.7533 26.1638 50.86C26.0705 50.9533 25.9505 51 25.8038 51H23.4438ZM16.1238 51C15.9772 51 15.8505 50.9533 15.7438 50.86C15.6505 50.7667 15.6038 50.6467 15.6038 50.5V44.66C15.6038 44.5133 15.6505 44.3933 15.7438 44.3C15.8505 44.1933 15.9772 44.14 16.1238 44.14H18.4838C18.6305 44.14 18.7505 44.1933 18.8438 44.3C18.9372 44.3933 18.9838 44.5133 18.9838 44.66V50.5C18.9838 50.6333 18.9372 50.7533 18.8438 50.86C18.7505 50.9533 18.6305 51 18.4838 51H16.1238ZM28.9726 51C28.8392 51 28.7192 50.9533 28.6126 50.86C28.5192 50.7533 28.4726 50.6333 28.4726 50.5V48.66C28.4726 48.5133 28.5192 48.3933 28.6126 48.3C28.7192 48.2067 28.8392 48.16 28.9726 48.16H31.8726C32.6459 48.16 33.2326 47.9667 33.6326 47.58C34.0326 47.1933 34.2459 46.6267 34.2726 45.88C34.2859 45.72 34.2926 45.52 34.2926 45.28C34.2926 45.0533 34.2859 44.86 34.2726 44.7C34.2459 43.9533 34.0326 43.3867 33.6326 43C33.2326 42.6133 32.6459 42.42 31.8726 42.42H28.9726C28.8392 42.42 28.7192 42.3733 28.6126 42.28C28.5192 42.1733 28.4726 42.0533 28.4726 41.92V40.08C28.4726 39.9333 28.5192 39.8133 28.6126 39.72C28.7192 39.6267 28.8392 39.58 28.9726 39.58H31.9726C35.5059 39.58 37.3526 41.2933 37.5126 44.72C37.5259 44.8667 37.5326 45.0533 37.5326 45.28C37.5326 47.0933 37.0926 48.5 36.2126 49.5C35.3459 50.5 33.9326 51 31.9726 51H28.9726ZM39.9305 46.26C39.7839 46.26 39.6572 46.2133 39.5505 46.12C39.4572 46.0267 39.4105 45.9067 39.4105 45.76V40.08C39.4105 39.9333 39.4572 39.8133 39.5505 39.72C39.6572 39.6267 39.7839 39.58 39.9305 39.58H42.4105C42.5572 39.58 42.6772 39.6267 42.7705 39.72C42.8639 39.8133 42.9105 39.9333 42.9105 40.08V45.76C42.9105 45.8933 42.8639 46.0133 42.7705 46.12C42.6772 46.2133 42.5572 46.26 42.4105 46.26H39.9305ZM45.6532 46.26C45.5065 46.26 45.3799 46.2133 45.2732 46.12C45.1799 46.0267 45.1332 45.9067 45.1332 45.76V40.08C45.1332 39.9333 45.1799 39.8133 45.2732 39.72C45.3799 39.6267 45.5065 39.58 45.6532 39.58H48.1332C48.2799 39.58 48.3999 39.6267 48.4932 39.72C48.5865 39.8133 48.6332 39.9333 48.6332 40.08V45.76C48.6332 45.8933 48.5865 46.0133 48.4932 46.12C48.3999 46.2133 48.2799 46.26 48.1332 46.26H45.6532ZM61.5159 50.3C61.5825 50.38 61.6159 50.4733 61.6159 50.58C61.6159 50.6867 61.5692 50.7867 61.4759 50.88C61.3959 50.96 61.3025 51 61.1959 51H58.7359C58.5625 51 58.4225 50.9667 58.3159 50.9C58.2225 50.82 58.1292 50.72 58.0359 50.6L54.5159 45.54C54.1559 45.8467 53.9225 46.2067 53.8159 46.62C53.7092 47.0333 53.6559 47.48 53.6559 47.96V50.46C53.6559 50.62 53.6092 50.7533 53.5159 50.86C53.4225 50.9533 53.3025 51 53.1559 51H51.1959C51.0625 51 50.9425 50.9467 50.8359 50.84C50.7425 50.7333 50.6959 50.6067 50.6959 50.46V47.98C50.6959 46.8467 50.8492 45.9267 51.1559 45.22C51.4625 44.5133 52.0425 43.8467 52.8959 43.22L50.8559 40.28C50.7892 40.2 50.7559 40.1067 50.7559 40C50.7559 39.8933 50.7959 39.8 50.8759 39.72C50.9692 39.6267 51.0692 39.58 51.1759 39.58H53.5359C53.7225 39.58 53.8625 39.6267 53.9559 39.72C54.0625 39.8 54.1625 39.9 54.2559 40.02L57.4759 44.58C57.8492 44.3267 58.0825 44.04 58.1759 43.72C58.2825 43.3867 58.3359 43 58.3359 42.56V40.12C58.3359 39.96 58.3825 39.8333 58.4759 39.74C58.5692 39.6333 58.6892 39.58 58.8359 39.58H60.9359C61.0692 39.58 61.1825 39.6333 61.2759 39.74C61.3825 39.8467 61.4359 39.9733 61.4359 40.12V42.64C61.4359 43.5067 61.2692 44.2867 60.9359 44.98C60.6025 45.6733 59.9892 46.3067 59.0959 46.88L61.5159 50.3Z" fill="#426FE2"/>
<path d="M63.8736 27.3759C63.8736 27.8157 63.6588 28.2502 63.2386 28.6757C62.8183 29.1014 62.1959 29.5144 61.3899 29.9094C59.778 30.6992 57.4423 31.4118 54.552 32.0108C48.7723 33.2086 40.7854 33.9499 31.9618 33.9499C23.1381 33.9499 15.1512 33.2086 9.37154 32.0108C6.48127 31.4118 4.1456 30.6992 2.53372 29.9094C1.72767 29.5144 1.10522 29.1014 0.684929 28.6757C0.264795 28.2502 0.05 27.8157 0.05 27.3759C0.05 26.9362 0.264795 26.5016 0.684929 26.0761C1.10522 25.6504 1.72767 25.2374 2.53372 24.8425C4.1456 24.0527 6.48127 23.34 9.37154 22.741C15.1512 21.5432 23.1381 20.802 31.9618 20.802C40.7854 20.802 48.7723 21.5432 54.552 22.741C57.4423 23.34 59.778 24.0527 61.3899 24.8425C62.1959 25.2374 62.8183 25.6504 63.2386 26.0761C63.6588 26.5016 63.8736 26.9362 63.8736 27.3759Z" stroke="#426FE2" stroke-width="0.1"/>
<path d="M55.3856 27.4222C55.3856 27.6843 55.2577 27.9613 54.9692 28.2522C54.6802 28.5437 54.2434 28.8345 53.6632 29.1176C52.5037 29.6833 50.8129 30.1982 48.7072 30.6327C44.4993 31.501 38.677 32.0396 32.2396 32.0396C25.8021 32.0396 19.9798 31.501 15.7719 30.6327C13.6663 30.1982 11.9754 29.6833 10.8159 29.1176C10.2357 28.8345 9.79895 28.5437 9.50987 28.2522C9.22139 27.9613 9.09355 27.6843 9.09355 27.4222C9.09355 27.16 9.22139 26.883 9.50987 26.5921C9.79895 26.3006 10.2357 26.0098 10.8159 25.7268C11.9754 25.161 13.6663 24.6461 15.7719 24.2116C19.9798 23.3433 25.8021 22.8047 32.2396 22.8047C38.677 22.8047 44.4993 23.3433 48.7072 24.2116C50.8129 24.6461 52.5037 25.161 53.6632 25.7268C54.2434 26.0098 54.6802 26.3006 54.9692 26.5921C55.2577 26.883 55.3856 27.16 55.3856 27.4222Z" stroke="#426FE2" stroke-width="0.4"/>
<path d="M50.9743 27.3759C50.9743 27.532 50.8999 27.7204 50.6814 27.9427C50.4617 28.1662 50.1196 28.3985 49.6482 28.6305C48.7068 29.0938 47.3218 29.5207 45.5819 29.8829C42.1078 30.606 37.2922 31.0559 31.962 31.0559C26.6317 31.0559 21.8162 30.606 18.342 29.8829C16.6021 29.5207 15.2172 29.0938 14.2757 28.6305C13.8043 28.3985 13.4622 28.1662 13.2426 27.9427C13.024 27.7204 12.9496 27.532 12.9496 27.3759C12.9496 27.2199 13.024 27.0314 13.2426 26.8091C13.4622 26.5857 13.8043 26.3533 14.2757 26.1213C15.2172 25.658 16.6021 25.2311 18.342 24.869C21.8162 24.1459 26.6317 23.6959 31.962 23.6959C37.2922 23.6959 42.1078 24.1459 45.5819 24.869C47.3218 25.2311 48.7068 25.658 49.6482 26.1213C50.1196 26.3533 50.4617 26.5857 50.6814 26.8091C50.8999 27.0314 50.9743 27.2199 50.9743 27.3759Z" stroke="#426FE2" stroke-width="0.7"/>
<path d="M58.8208 27.4221C58.8208 27.7706 58.65 28.1214 58.3021 28.4719C57.954 28.8227 57.4353 29.1659 56.7584 29.4959C55.4051 30.1556 53.4404 30.7524 51.0045 31.2547C46.1343 32.2588 39.4016 32.8807 31.9618 32.8807C24.5219 32.8807 17.7892 32.2588 12.919 31.2547C10.4831 30.7524 8.51838 30.1556 7.16508 29.4959C6.48822 29.1659 5.96953 28.8227 5.62138 28.4719C5.27351 28.1214 5.10269 27.7706 5.10269 27.4221C5.10269 27.0736 5.27351 26.7228 5.62138 26.3723C5.96953 26.0215 6.48822 25.6783 7.16508 25.3483C8.51838 24.6886 10.4831 24.0918 12.919 23.5895C17.7892 22.5854 24.5219 21.9635 31.9618 21.9635C39.4016 21.9635 46.1343 22.5854 51.0045 23.5895C53.4404 24.0918 55.4051 24.6886 56.7584 25.3483C57.4353 25.6783 57.954 26.0215 58.3021 26.3723C58.65 26.7228 58.8208 27.0736 58.8208 27.4221Z" stroke="#426FE2" stroke-width="0.2"/>
<path d="M46.2844 27.4222C46.2844 27.4571 46.2695 27.5439 46.1283 27.6862C45.9856 27.83 45.7492 27.9927 45.4004 28.1628C44.7048 28.502 43.6661 28.8212 42.3419 29.0943C39.7016 29.6388 36.0314 29.9794 31.9615 29.9794C27.8917 29.9794 24.2214 29.6388 21.5812 29.0943C20.257 28.8212 19.2182 28.502 18.5227 28.1628C18.1738 27.9927 17.9374 27.83 17.7948 27.6862C17.6536 27.5439 17.6387 27.4571 17.6387 27.4222C17.6387 27.3873 17.6536 27.3005 17.7948 27.1582C17.9374 27.0144 18.1738 26.8517 18.5227 26.6816C19.2182 26.3424 20.257 26.0232 21.5812 25.7501C24.2214 25.2056 27.8917 24.865 31.9615 24.865C36.0314 24.865 39.7016 25.2056 42.3419 25.7501C43.6661 26.0232 44.7048 26.3424 45.4004 26.6816C45.7492 26.8517 45.9856 27.0144 46.1283 27.1582C46.2695 27.3005 46.2844 27.3873 46.2844 27.4222Z" stroke="#426FE2"/>
<mask id="path-7-inside-1_61:197" fill="white">
<ellipse cx="31.9618" cy="27.7003" rx="8.05993" ry="1.66757"/>
</mask>
<path d="M38.0217 27.7003C38.0217 27.1131 38.3183 26.7489 38.436 26.63C38.5476 26.5171 38.6083 26.5045 38.5095 26.5528C38.3201 26.6455 37.9169 26.7841 37.2558 26.9209C35.9664 27.1877 34.0936 27.3679 31.9618 27.3679V31.3679C34.2813 31.3679 36.4385 31.1747 38.0662 30.838C38.8636 30.673 39.6408 30.4523 40.2671 30.146C40.5762 29.9948 40.9536 29.7727 41.2799 29.4428C41.6123 29.1067 42.0217 28.5178 42.0217 27.7003H38.0217ZM31.9618 27.3679C29.8299 27.3679 27.9572 27.1877 26.6678 26.9209C26.0066 26.7841 25.6035 26.6455 25.4141 26.5528C25.3152 26.5045 25.376 26.5171 25.4876 26.63C25.6052 26.7489 25.9019 27.1131 25.9019 27.7003H21.9019C21.9019 28.5178 22.3112 29.1067 22.6436 29.4428C22.97 29.7727 23.3474 29.9948 23.6564 30.146C24.2827 30.4523 25.0599 30.673 25.8573 30.838C27.4851 31.1747 29.6423 31.3679 31.9618 31.3679V27.3679ZM25.9019 27.7003C25.9019 28.2875 25.6052 28.6517 25.4876 28.7706C25.376 28.8835 25.3152 28.8961 25.4141 28.8478C25.6035 28.7551 26.0066 28.6164 26.6678 28.4797C27.9572 28.2129 29.8299 28.0327 31.9618 28.0327V24.0327C29.6423 24.0327 27.4851 24.2258 25.8573 24.5626C25.0599 24.7276 24.2827 24.9483 23.6564 25.2546C23.3474 25.4058 22.97 25.6279 22.6436 25.9578C22.3112 26.2939 21.9019 26.8828 21.9019 27.7003H25.9019ZM31.9618 28.0327C34.0936 28.0327 35.9664 28.2129 37.2558 28.4797C37.9169 28.6164 38.3201 28.7551 38.5095 28.8478C38.6083 28.8961 38.5476 28.8835 38.436 28.7706C38.3183 28.6517 38.0217 28.2875 38.0217 27.7003H42.0217C42.0217 26.8828 41.6123 26.2939 41.2799 25.9578C40.9536 25.6279 40.5762 25.4058 40.2671 25.2546C39.6408 24.9483 38.8636 24.7276 38.0662 24.5626C36.4385 24.2258 34.2813 24.0327 31.9618 24.0327V28.0327Z" fill="#426FE2" mask="url(#path-7-inside-1_61:197)"/>
<path d="M31.9153 0C26.4605 0 22.0488 4.42207 22.0488 9.88962C22.0488 17.3068 31.9153 28.2561 31.9153 28.2561C31.9153 28.2561 41.7818 17.3068 41.7818 9.88962C41.7818 4.42207 37.37 0 31.9153 0ZM31.9153 13.4216C29.9702 13.4216 28.3916 11.8393 28.3916 9.88962C28.3916 7.93995 29.9702 6.35762 31.9153 6.35762C33.8604 6.35762 35.439 7.93995 35.439 9.88962C35.439 11.8393 33.8604 13.4216 31.9153 13.4216Z" fill="#426FE2"/>
</svg>
